# xmcd
#
# Track frame offsets:
#	150
#	15783
#	29349
#	43583
#	59776
#	73046
#	91252
#	102839
#	117440
#	132943
#	144841
#	157454
#
# Disc length: 2232 seconds
# Revision: 1
# Processed by: cddbd v1.5.2PL0 Copyright (c) Steve Scherf et al.
# Submitted via: dBpowerAMP V12.0
#
DISCID=a408b60c
DTITLE=Steve Gulley and New Pinnacle - High Peaks And New Ground
DYEAR=2019
DGENRE=Bluegrass
TTITLE0=Real Shine
TTITLE1=You're Gone
TTITLE2=Even Tho
TTITLE3=Moonshine or the Coal Mine
TTITLE4=Drowned In Sorrow
TTITLE5=Not Now
TTITLE6=Leaning Towards Leaving
TTITLE7=Just Because You Can
TTITLE8=Shes a Taker
TTITLE9=Aim High
TTITLE10=The Raging Storm
TTITLE11=Leaving Crazytown
EXTD=
EXTT0=
EXTT1=
EXTT2=
EXTT3=
EXTT4=
EXTT5=
EXTT6=
EXTT7=
EXTT8=
EXTT9=
EXTT10=
EXTT11=
PLAYORDER=
